{"asset":{"version":"2.0","generator":"Aster original procedural test fixtures"},"scene":0,"scenes":[{"nodes":[0]}],"nodes":[{"mesh":0}],"buffers":[{"byteLength":912,"uri":"data:application/octet-stream;base64,"}],"bufferViews":[{"buffer":0,"byteLength":768,"byteStride":32},{"buffer":0,"byteOffset":768,"byteLength":144}],"accessors":[{"bufferView":0,"byteOffset":0,"componentType":5126,"count":24,"type":"VEC3","min":[-0.5,-0.5,-0.5],"max":[0.5,0.5,0.5]},{"bufferView":0,"byteOffset":12,"componentType":5126,"count":24,"type":"VEC3"},{"bufferView":0,"byteOffset":24,"componentType":5126,"count":24,"type":"VEC2"},{"bufferView":1,"componentType":5125,"count":36,"type":"SCALAR"}],"meshes":[{"primitives":[{"attributes":{"POSITION":0,"NORMAL":1,"TEXCOORD_0":2},"indices":3,"material":0}]}],"materials":[{"name":"Cube","pbrMetallicRoughness":{"baseColorFactor":[0.5,0.65,0.85,1],"metallicFactor":0.25,"roughnessFactor":0.4}}]}
