{"asset":{"version":"2.0","generator":"Aster original procedural test fixtures"},"scene":0,"scenes":[{"nodes":[0]}],"nodes":[{"mesh":0}],"buffers":[{"byteLength":22240,"uri":"data:application/octet-stream;base64,"}],"bufferViews":[{"buffer":0,"byteLength":13600,"byteStride":32},{"buffer":0,"byteOffset":13600,"byteLength":8640}],"accessors":[{"bufferView":0,"byteOffset":0,"componentType":5126,"count":425,"type":"VEC3","min":[-0.5,-0.5,-0.5],"max":[0.5,0.5,0.5]},{"bufferView":0,"byteOffset":12,"componentType":5126,"count":425,"type":"VEC3"},{"bufferView":0,"byteOffset":24,"componentType":5126,"count":425,"type":"VEC2"},{"bufferView":1,"componentType":5125,"count":2160,"type":"SCALAR"}],"meshes":[{"primitives":[{"attributes":{"POSITION":0,"NORMAL":1,"TEXCOORD_0":2},"indices":3,"material":0}]}],"materials":[{"name":"Sphere","pbrMetallicRoughness":{"baseColorFactor":[1,0.64,0.2,1],"metallicFactor":0.85,"roughnessFactor":0.22}}]}
