{"asset":{"version":"2.0","generator":"Aster original procedural test fixtures"},"scene":0,"scenes":[{"nodes":[0]}],"nodes":[{"mesh":0}],"buffers":[{"byteLength":22944,"uri":"data:application/octet-stream;base64,"}],"bufferViews":[{"buffer":0,"byteLength":13728,"byteStride":32},{"buffer":0,"byteOffset":13728,"byteLength":9216}],"accessors":[{"bufferView":0,"byteOffset":0,"componentType":5126,"count":429,"type":"VEC3","min":[-0.8500000000000001,-0.2,-0.8500000000000001],"max":[0.8500000000000001,0.2,0.8500000000000001]},{"bufferView":0,"byteOffset":12,"componentType":5126,"count":429,"type":"VEC3"},{"bufferView":0,"byteOffset":24,"componentType":5126,"count":429,"type":"VEC2"},{"bufferView":1,"componentType":5125,"count":2304,"type":"SCALAR"}],"meshes":[{"primitives":[{"attributes":{"POSITION":0,"NORMAL":1,"TEXCOORD_0":2},"indices":3,"material":0}]}],"materials":[{"name":"Torus","pbrMetallicRoughness":{"baseColorFactor":[0.3,0.75,0.9,1],"metallicFactor":0.6,"roughnessFactor":0.25}}]}
